<?xml version="1.0" standalone="no"?>
<!DOCTYPE svg PUBLIC "-//W3C//DTD SVG 20010904//EN"
 "http://www.w3.org/TR/2001/REC-SVG-20010904/DTD/svg10.dtd">
<svg version="1.0" xmlns="http://www.w3.org/2000/svg"
 width="222.000000pt" height="222.000000pt" viewBox="0 0 222.000000 222.000000"
 preserveAspectRatio="xMidYMid meet">
<metadata>
Created by potrace 1.11, written by Peter Selinger 2001-2013
</metadata>
<g transform="translate(0.000000,222.000000) scale(0.100000,-0.100000)"
fill="#000000" stroke="none">
<path d="M1285 2206 c-17 -7 -50 -36 -75 -63 -25 -28 -59 -58 -77 -67 -17 -8
-33 -19 -35 -23 -1 -5 -16 -18 -32 -31 -16 -12 -26 -22 -23 -22 3 0 -16 -22
-41 -50 -26 -27 -62 -70 -81 -95 -18 -25 -40 -45 -48 -45 -8 0 -11 5 -7 12 4
7 3 8 -4 4 -6 -4 -9 -13 -5 -21 3 -9 -1 -15 -9 -15 -8 0 -27 -22 -43 -49 -17
-27 -32 -45 -35 -40 -3 5 -20 -19 -38 -53 -40 -78 -42 -59 -2 24 17 34 30 67
30 75 0 7 5 13 10 13 6 0 10 9 10 20 0 11 5 20 10 20 6 0 10 5 10 10 0 6 18
39 39 73 22 34 38 64 35 66 -5 5 -2 10 -63 -77 -28 -39 -51 -76 -51 -81 0 -5
-4 -11 -8 -13 -5 -1 -32 -39 -60 -83 -29 -44 -61 -91 -73 -105 l-21 -25 16 30
c35 68 66 135 63 135 -6 0 -68 -104 -111 -183 -20 -38 -45 -77 -55 -88 -10
-11 -24 -32 -32 -47 -19 -37 -61 -93 -66 -88 -2 2 4 19 15 37 25 46 34 71 22
64 -6 -3 -10 -13 -10 -21 0 -8 -3 -14 -7 -14 -5 0 -21 -26 -38 -58 -16 -31
-35 -63 -42 -70 -7 -8 -18 -22 -23 -33 -18 -33 -29 -21 -24 27 2 26 7 52 11
58 4 7 3 8 -5 1 -13 -13 -33 -85 -26 -97 3 -4 0 -8 -6 -8 -6 0 -9 -3 -6 -8 6
-10 -21 -72 -32 -72 -5 0 -15 27 -22 60 -7 33 -17 60 -22 60 -5 0 -7 -4 -4 -8
3 -5 8 -31 11 -58 3 -27 8 -58 10 -69 2 -12 -2 -32 -9 -46 -8 -16 -10 -33 -5
-47 12 -33 -3 -27 -49 20 -23 23 -50 43 -59 44 -14 2 -12 -3 8 -20 14 -12 30
-29 35 -38 5 -9 36 -46 69 -83 33 -37 59 -71 58 -76 -2 -5 4 -6 12 -3 14 6 16
1 19 -35 1 -8 8 -16 16 -18 13 -4 13 -3 0 7 -12 9 -12 11 -1 8 16 -5 24 -35
10 -44 -5 -3 -9 0 -9 7 0 8 -7 6 -19 -5 -16 -14 -23 -15 -41 -6 -18 10 -21 9
-15 -1 6 -8 4 -10 -6 -3 -18 11 -59 13 -59 3 0 -7 24 -16 103 -35 32 -7 46
-24 20 -24 -11 0 -24 -5 -31 -12 -11 -11 -37 -14 -162 -17 -38 -1 -50 -4 -40
-10 8 -6 18 -7 24 -4 5 3 6 1 3 -4 -4 -6 -19 -9 -34 -6 -42 5 -1 -11 62 -26
75 -18 139 -52 143 -77 2 -11 -3 -21 -10 -22 -23 -2 -89 -20 -95 -26 -4 -3 11
-7 33 -8 21 -1 57 -3 79 -4 88 -5 212 -15 240 -20 17 -3 41 -8 55 -10 14 -3
33 -5 42 -5 10 0 20 -4 23 -10 4 -5 17 -9 29 -9 27 0 101 -29 93 -36 -3 -3
-15 0 -27 6 -11 6 -31 10 -43 7 -25 -4 -25 -4 83 -37 41 -12 96 -33 121 -46
26 -13 49 -20 53 -17 3 4 6 1 6 -6 0 -8 -7 -11 -15 -7 -8 3 -15 2 -15 -2 0 -4
46 -29 102 -57 107 -52 133 -63 108 -46 -8 5 -12 13 -8 16 3 3 13 -2 23 -11 9
-10 29 -19 44 -21 47 -5 51 -6 51 -15 0 -4 5 -8 11 -8 17 0 139 -60 184 -90
96 -64 84 -48 -21 28 -39 29 -76 52 -82 52 -6 0 -12 3 -14 8 -4 10 -116 82
-128 82 -5 0 -10 5 -10 11 0 5 5 7 12 3 7 -4 8 -3 4 5 -6 9 -11 9 -24 -1 -10
-8 -13 -9 -9 -1 4 6 3 14 -3 18 -19 12 -10 25 15 21 14 -3 25 -3 25 0 0 2 -11
9 -25 14 -38 14 -31 30 20 46 59 19 114 38 134 47 15 8 79 12 167 12 78 0 142
1 141 2 -3 2 -90 16 -108 17 -9 0 -16 6 -16 13 0 9 28 11 111 7 61 -2 129 -6
151 -9 48 -6 129 -14 205 -19 60 -5 42 8 -25 17 -22 3 -47 8 -55 11 -8 3 -29
7 -46 9 -49 7 -104 30 -104 43 0 7 15 17 33 24 66 24 191 60 209 60 10 0 18 6
18 13 0 9 15 13 51 11 67 -2 50 12 -26 21 -32 3 -63 9 -69 12 -18 12 71 45
134 50 133 10 66 13 -176 7 -222 -6 -294 -3 -211 8 15 2 26 8 25 14 -2 5 -7 7
-13 5 -5 -2 -21 -4 -35 -5 -14 0 -28 -5 -31 -10 -4 -4 -9 -4 -13 2 -5 9 33 27
82 39 29 7 40 10 97 28 80 25 91 36 18 18 -74 -18 -103 -24 -128 -28 -11 -1
-29 -6 -39 -11 -15 -6 -17 -4 -11 6 6 10 4 12 -9 7 -10 -4 -21 -7 -24 -7 -4 0
-2 -4 5 -8 6 -4 -11 -7 -38 -7 -27 0 -49 3 -49 7 0 4 23 19 50 33 58 29 67 41
15 19 -36 -14 -61 -11 -50 7 3 5 -1 6 -9 3 -30 -11 -16 6 17 21 17 8 23 13 12
10 -17 -6 -17 -3 4 19 14 15 29 26 35 26 6 0 2 -7 -8 -15 -11 -8 -15 -15 -10
-15 5 0 32 21 59 46 28 25 41 40 30 33 -10 -8 -28 -22 -38 -32 -10 -10 -21
-16 -24 -13 -6 5 248 260 348 349 35 31 42 40 19 25 -19 -12 -38 -27 -41 -32
-4 -5 -12 -5 -19 -1 -8 5 -11 4 -7 -2 4 -6 -6 -16 -22 -23 -16 -6 -37 -20 -47
-31 -9 -10 -21 -16 -25 -13 -5 3 -9 0 -9 -5 0 -6 -5 -11 -11 -11 -6 0 -9 9 -6
20 3 10 0 21 -7 24 -6 3 -1 3 12 0 18 -4 30 2 53 27 16 19 32 45 35 59 9 41
12 46 13 22 1 -19 10 -13 61 41 77 82 120 136 121 153 1 8 2 21 2 29 0 49 -9
63 -75 126 -39 38 -75 69 -78 69 -3 0 -4 -16 -2 -35 2 -19 0 -35 -5 -35 -5 0
-10 8 -10 18 1 70 -5 79 -106 166 -27 22 -68 59 -91 81 -23 22 -77 72 -120
110 -43 39 -97 87 -120 108 -22 21 -52 43 -66 49 -42 16 -103 19 -135 4z m508
-1036 c3 -11 1 -18 -3 -15 -5 3 -14 -3 -19 -12 -9 -15 -10 -13 -7 12 5 37 4
35 15 35 5 0 11 -9 14 -20z m-237 -362 c4 -7 3 -10 -1 -5 -5 4 -19 0 -32 -8
-23 -15 -23 -15 -11 5 14 23 33 26 44 8z"/>
<path d="M1742 1003 c-24 -24 -24 -25 -2 -8 42 33 44 35 37 35 -4 0 -19 -12
-35 -27z"/>
<path d="M85 907 c32 -27 157 -101 190 -113 40 -14 0 14 -80 56 -44 24 -87 48
-95 55 -31 25 -44 26 -15 2z"/>
<path d="M126 782 c-3 -4 4 -9 15 -9 23 -2 25 3 4 10 -8 4 -16 3 -19 -1z"/>
<path d="M1755 740 c-3 -5 -1 -10 4 -10 6 0 11 5 11 10 0 6 -2 10 -4 10 -3 0
-8 -4 -11 -10z"/>
</g>
</svg>
